<svg width="21" height="20" viewBox="0 0 21 20" fill="none" xmlns="http://www.w3.org/2000/svg">
<path d="M14.875 18.3327H6.125C5.1585 18.3327 4.375 17.5865 4.375 16.666V5.83268H2.625V4.16602H6.125V3.33268C6.125 2.41221 6.9085 1.66602 7.875 1.66602H13.125C14.0915 1.66602 14.875 2.41221 14.875 3.33268V4.16602H18.375V5.83268H16.625V16.666C16.625 17.5865 15.8415 18.3327 14.875 18.3327ZM6.125 5.83268V16.666H14.875V5.83268H6.125ZM7.875 3.33268V4.16602H13.125V3.33268H7.875ZM13.125 14.9993H11.375V7.49935H13.125V14.9993ZM9.625 14.9993H7.875V7.49935H9.625V14.9993Z" fill="black"/>
</svg>
