<svg width="15" height="10" viewBox="0 0 15 10" fill="none" xmlns="http://www.w3.org/2000/svg">
<path fill-rule="evenodd" clip-rule="evenodd" d="M7.18961 0C11.6867 0 14.2571 4.99966 14.2571 4.99966C14.2571 4.99966 11.6867 10 7.18961 10C2.69183 10 0.12207 4.99966 0.12207 4.99966C0.12207 4.99966 2.69183 0 7.18961 0ZM7.18962 2.78102C5.93162 2.78102 4.90826 3.77656 4.90826 4.99966C4.90826 6.22344 5.93162 7.21898 7.18962 7.21898C8.44692 7.21898 9.47028 6.22344 9.47028 4.99966C9.47028 3.77656 8.44692 2.78102 7.18962 2.78102ZM8.76355 4.99993C8.76355 4.15566 8.05751 3.46882 7.18962 3.46882C6.32174 3.46882 5.61499 4.15566 5.61499 4.99993C5.61499 5.84421 6.32174 6.53173 7.18962 6.53173C8.05751 6.53173 8.76355 5.84421 8.76355 4.99993Z" fill="black"/>
</svg>
